<?xml version="1.0" standalone="no"?>
<!DOCTYPE svg PUBLIC "-//W3C//DTD SVG 20010904//EN"
 "http://www.w3.org/TR/2001/REC-SVG-20010904/DTD/svg10.dtd">
<svg version="1.0" xmlns="http://www.w3.org/2000/svg"
 width="40.000000pt" height="38.000000pt" viewBox="0 0 40.000000 38.000000"
 preserveAspectRatio="xMidYMid meet">

<g transform="translate(0.000000,38.000000) scale(0.100000,-0.100000)"
fill="#000000" stroke="none">
<path d="M133 350 c-24 -10 -43 -23 -43 -28 0 -4 13 -21 30 -37 25 -24 33 -27
53 -18 19 9 23 18 23 54 -1 23 -5 44 -11 45 -5 2 -29 -5 -52 -16z"/>
<path d="M210 321 c0 -44 2 -49 26 -55 21 -6 33 -1 55 20 16 15 29 32 29 36 0
10 -77 47 -97 48 -9 0 -13 -16 -13 -49z"/>
<path d="M56 288 c-9 -13 -19 -39 -22 -57 l-7 -32 48 3 c38 2 49 7 56 24 6 17
0 29 -26 54 l-33 32 -16 -24z"/>
<path d="M302 277 c-23 -24 -30 -38 -26 -55 6 -19 13 -22 55 -22 38 0 49 4 49
16 0 18 -29 82 -40 89 -4 2 -21 -10 -38 -28z"/>
<path d="M34 149 c3 -18 13 -44 22 -57 l16 -24 33 32 c26 25 32 37 26 54 -7
17 -18 22 -56 24 l-48 3 7 -32z"/>
<path d="M276 158 c-4 -17 3 -32 28 -57 l34 -34 21 41 c32 63 29 72 -28 72
-42 0 -49 -3 -55 -22z"/>
<path d="M117 92 c-15 -15 -27 -31 -27 -35 0 -10 51 -34 80 -38 23 -4 25 -1
25 35 1 38 -15 66 -39 66 -7 0 -24 -13 -39 -28z"/>
<path d="M228 113 c-14 -3 -18 -15 -18 -54 0 -49 0 -49 28 -43 36 9 82 33 82
42 0 12 -54 62 -66 61 -5 -1 -17 -3 -26 -6z"/>
</g>
</svg>
