<?xml version="1.0" standalone="no"?>
<!DOCTYPE svg PUBLIC "-//W3C//DTD SVG 20010904//EN"
 "http://www.w3.org/TR/2001/REC-SVG-20010904/DTD/svg10.dtd">
<svg version="1.0" xmlns="http://www.w3.org/2000/svg"
 width="115.000000pt" height="28.000000pt" viewBox="0 0 115.000000 28.000000"
 preserveAspectRatio="xMidYMid meet">

<g transform="translate(0.000000,28.000000) scale(0.100000,-0.100000)"
fill="#000000" stroke="none">
<path d="M360 205 c0 -42 3 -55 15 -55 8 0 15 9 15 19 0 14 8 21 28 23 20 2
28 9 30 27 4 29 -12 41 -55 41 l-33 0 0 -55z m66 24 c3 -6 0 -15 -7 -20 -22
-14 -29 -11 -29 11 0 21 24 27 36 9z"/>
<path d="M470 218 c-11 -24 -20 -49 -20 -55 0 -15 16 -17 25 -3 3 6 15 10 26
10 10 0 19 -4 19 -10 0 -5 7 -10 16 -10 16 0 14 14 -12 78 -17 43 -31 40 -54
-10z m40 -19 c0 -5 -4 -9 -10 -9 -5 0 -10 7 -10 16 0 8 5 12 10 9 6 -3 10 -10
10 -16z"/>
<path d="M560 205 c0 -42 3 -55 15 -55 10 0 15 10 15 33 l0 32 20 -32 c28 -47
40 -41 40 22 0 30 -4 55 -10 55 -5 0 -10 -15 -10 -32 l0 -33 -21 33 c-32 50
-49 42 -49 -23z"/>
<path d="M670 251 c0 -5 7 -11 15 -15 10 -3 15 -19 15 -46 0 -22 5 -40 10 -40
6 0 10 20 10 45 0 33 4 45 15 45 8 0 15 5 15 10 0 6 -18 10 -40 10 -22 0 -40
-4 -40 -9z"/>
<path d="M767 242 c-22 -24 -21 -55 1 -75 37 -34 92 -11 92 38 0 50 -60 73
-93 37z m58 -37 c0 -23 -4 -30 -20 -30 -21 0 -31 25 -21 51 11 28 41 12 41
-21z"/>
<path d="M880 205 c0 -30 5 -55 10 -55 6 0 10 15 10 33 l0 32 21 -32 c32 -51
49 -43 49 22 0 42 -3 55 -15 55 -10 0 -15 -10 -15 -32 l0 -33 -20 33 c-28 46
-40 40 -40 -23z"/>
<path d="M990 205 l0 -55 40 0 c22 0 40 5 40 10 0 6 -13 10 -30 10 -20 0 -30
5 -30 15 0 9 9 15 25 15 14 0 25 5 25 10 0 6 -11 10 -25 10 -14 0 -25 5 -25
10 0 6 14 10 30 10 17 0 30 5 30 10 0 6 -18 10 -40 10 l-40 0 0 -55z"/>
<path d="M1083 244 c-3 -8 0 -21 7 -27 10 -10 12 -8 7 6 -4 11 -3 16 3 12 6
-3 10 -1 10 5 0 6 5 8 12 4 7 -4 8 -3 4 4 -10 17 -36 15 -43 -4z"/>
<path d="M370 110 c-11 -11 -20 -29 -20 -40 0 -21 33 -60 51 -60 20 0 49 21
49 35 0 20 -10 19 -25 -2 -18 -24 -45 -9 -45 26 0 32 24 48 47 30 7 -7 17 -9
21 -5 8 9 -26 36 -45 36 -7 0 -22 -9 -33 -20z"/>
<path d="M480 110 c-11 -11 -20 -31 -20 -44 0 -25 32 -56 57 -56 20 0 53 38
53 60 0 23 -33 60 -55 60 -8 0 -24 -9 -35 -20z m48 -9 c19 -12 11 -65 -10 -69
-24 -5 -42 32 -28 58 12 22 18 24 38 11z"/>
<path d="M900 110 c-11 -11 -20 -31 -20 -45 0 -48 78 -71 94 -28 9 23 -4 31
-15 10 -23 -39 -71 3 -49 43 12 23 15 24 42 9 26 -14 33 -6 13 15 -22 21 -41
20 -65 -4z"/>
<path d="M580 70 c0 -27 5 -50 10 -50 6 0 10 15 10 33 l0 32 21 -32 c31 -49
49 -43 49 17 0 55 -17 69 -22 18 l-3 -33 -20 33 c-29 48 -45 41 -45 -18z"/>
<path d="M690 70 c0 -27 5 -50 10 -50 6 0 10 15 10 33 l0 32 20 -32 c30 -50
50 -43 50 17 0 28 -4 50 -10 50 -5 0 -10 -13 -10 -30 0 -38 -10 -38 -32 0 -25
44 -38 37 -38 -20z"/>
<path d="M790 70 l0 -50 43 1 c37 1 38 2 13 8 -41 9 -46 31 -7 31 17 0 31 5
31 10 0 6 -14 10 -31 10 -39 0 -34 22 7 31 25 6 24 7 -13 8 l-43 1 0 -50z"/>
<path d="M998 110 c18 -8 22 -17 22 -50 0 -22 5 -40 10 -40 6 0 10 20 10 44 0
34 4 46 18 49 9 3 -5 5 -33 5 -39 1 -45 -1 -27 -8z"/>
<path d="M168 60 l-4 -40 43 0 43 0 0 40 c0 40 0 40 -39 40 -38 0 -39 -1 -43
-40z"/>
</g>
</svg>
